# xmcd CD database file
#
# Track frame offsets:
#	187
#	95082
#	174880
#
# Disc length: 3061 seconds
#
# Revision: 2
# Processed by: cddbd v1.5.1PL0 Copyright (c) Steve Scherf et al.
# Submitted via: CDex 1.51
#
DISCID=1b0bf303
DTITLE=Herbie Hancock - The New Standard [CD2]
DYEAR=1996
DGENRE=Jazz
TTITLE0=You 've Got It Bad Girl
TTITLE1=Thieves In The Temple
TTITLE2=Dolphin Dance
EXTD=YEAR: 1996
EXTT0=
EXTT1=
EXTT2=
PLAYORDER=
